<svg width="35" height="35" viewBox="0 0 35 35" fill="none" xmlns="http://www.w3.org/2000/svg">
<g clip-path="url(#clip0_2142_135)">
<path d="M0 0H35V35H0V0Z" fill="#A60E0E" fill-opacity="0.7"/>
<path fill-rule="evenodd" clip-rule="evenodd" d="M27.1488 10.3072C27.4534 8.82202 25.9947 7.5878 24.5805 8.13421L7.24498 14.832C5.66566 15.4422 5.59529 17.6506 7.13255 18.3601L10.9077 20.1025L12.7036 26.3882C12.7969 26.7147 13.056 26.9675 13.3847 27.0527C13.7134 27.1378 14.0626 27.0427 14.3027 26.8025L17.0691 24.0361L20.9444 26.9426C22.0692 27.7862 23.6894 27.1717 23.9719 25.7943L27.1488 10.3072ZM7.93575 16.6199L25.2712 9.92207L22.0944 25.4092L17.5542 22.0041C17.1727 21.7179 16.6388 21.7559 16.3016 22.0931L15.1167 23.278L15.4727 21.32L22.4486 14.3442C22.7881 14.0047 22.8239 13.4664 22.5325 13.0849C22.2411 12.7033 21.7124 12.5963 21.2955 12.8345L11.6617 18.3395L7.93575 16.6199ZM12.8363 19.8758L13.4174 21.9098L13.6405 20.6826C13.6754 20.4909 13.768 20.3142 13.9058 20.1764L16.0332 18.0491L12.8363 19.8758Z" fill="#0F0F0F"/>
</g>
<defs>
<clipPath id="clip0_2142_135">
<rect width="35" height="35" rx="17.5" fill="white"/>
</clipPath>
</defs>
</svg>
