<svg width="46" height="46" viewBox="0 0 46 46" fill="none" xmlns="http://www.w3.org/2000/svg">
<g clip-path="url(#clip0_2146_114)">
<rect width="46" height="46" rx="10" fill="#D51F1F"/>
<path fill-rule="evenodd" clip-rule="evenodd" d="M33.1488 15.3072C33.4534 13.822 31.9947 12.5878 30.5805 13.1342L13.245 19.832C11.6657 20.4422 11.5953 22.6506 13.1325 23.3601L16.9077 25.1025L18.7036 31.3881C18.7969 31.7147 19.056 31.9675 19.3847 32.0527C19.7134 32.1378 20.0626 32.0427 20.3027 31.8025L23.0691 29.0361L26.9444 31.9425C28.0692 32.7862 29.6894 32.1717 29.9719 30.7943L33.1488 15.3072ZM13.9357 21.6199L31.2712 14.9221L28.0944 30.4092L23.5542 27.0041C23.1727 26.7179 22.6388 26.7559 22.3016 27.0931L21.1167 28.278L21.4727 26.32L28.4486 19.3442C28.7881 19.0047 28.8239 18.4664 28.5325 18.0849C28.2411 17.7033 27.7124 17.5963 27.2955 17.8345L17.6617 23.3395L13.9357 21.6199ZM18.8363 24.8758L19.4174 26.9098L19.6405 25.6826C19.6754 25.4909 19.768 25.3142 19.9058 25.1764L22.0332 23.0491L18.8363 24.8758Z" fill="white"/>
</g>
<defs>
<clipPath id="clip0_2146_114">
<rect width="46" height="46" fill="white"/>
</clipPath>
</defs>
</svg>
