<svg width="35" height="35" viewBox="0 0 35 35" fill="none" xmlns="http://www.w3.org/2000/svg">
<g clip-path="url(#clip0_2142_123)">
<path d="M0 0H35V35H0V0Z" fill="#A60E0E" fill-opacity="0.7"/>
<path d="M23.0189 19.2161C22.974 19.1946 21.2973 18.3689 20.9993 18.2617C20.8777 18.218 20.7474 18.1754 20.6088 18.1754C20.3824 18.1754 20.1922 18.2882 20.044 18.5099C19.8765 18.7588 19.3695 19.3515 19.2128 19.5286C19.1923 19.552 19.1644 19.5799 19.1477 19.5799C19.1327 19.5799 18.8732 19.473 18.7946 19.4389C16.9959 18.6576 15.6306 16.7787 15.4434 16.4618C15.4167 16.4163 15.4156 16.3956 15.4153 16.3956C15.4219 16.3715 15.4824 16.3108 15.5136 16.2795C15.6049 16.1892 15.7039 16.0701 15.7996 15.9548C15.8449 15.9002 15.8903 15.8456 15.9349 15.7941C16.0738 15.6325 16.1357 15.507 16.2073 15.3617L16.2449 15.2862C16.4199 14.9384 16.2704 14.645 16.2221 14.5502C16.1825 14.4709 15.4745 12.7622 15.3992 12.5826C15.2182 12.1495 14.979 11.9478 14.6466 11.9478C14.6158 11.9478 14.6466 11.9478 14.5173 11.9532C14.3598 11.9599 13.5021 12.0728 13.1229 12.3118C12.7208 12.5653 12.0405 13.3735 12.0405 14.7947C12.0405 16.0738 12.8522 17.2815 13.2008 17.7408C13.2094 17.7524 13.2253 17.7759 13.2484 17.8097C14.5831 19.7589 16.2469 21.2034 17.9336 21.8772C19.5574 22.5258 20.3264 22.6008 20.7635 22.6008H20.7636C20.9473 22.6008 21.0943 22.5864 21.224 22.5736L21.3063 22.5658C21.8673 22.516 23.1 21.8773 23.3804 21.098C23.6013 20.4843 23.6596 19.8137 23.5126 19.5703C23.4119 19.4048 23.2385 19.3216 23.0189 19.2161Z" fill="black"/>
<path d="M17.7042 6C11.475 6 6.40726 11.0297 6.40726 17.212C6.40726 19.2116 6.94239 21.1689 7.9561 22.8819L6.01581 28.6054C5.97967 28.7121 6.00655 28.8301 6.08549 28.9105C6.14246 28.9687 6.21975 29 6.29868 29C6.32893 29 6.3594 28.9955 6.38912 28.986L12.3572 27.0895C13.9903 27.9621 15.8361 28.4227 17.7042 28.4227C23.9328 28.4228 29 23.3936 29 17.212C29 11.0297 23.9328 6 17.7042 6ZM17.7042 26.0872C15.9464 26.0872 14.2438 25.5797 12.7804 24.6193C12.7311 24.587 12.674 24.5704 12.6165 24.5704C12.5861 24.5704 12.5557 24.5751 12.526 24.5845L9.53638 25.5348L10.5015 22.6875C10.5327 22.5953 10.5171 22.4937 10.4596 22.4151C9.34514 20.8924 8.75603 19.0932 8.75603 17.212C8.75603 12.3175 12.7701 8.33555 17.7041 8.33555C22.6374 8.33555 26.6511 12.3175 26.6511 17.212C26.6512 22.1058 22.6376 26.0872 17.7042 26.0872Z" fill="black"/>
</g>
<defs>
<clipPath id="clip0_2142_123">
<rect width="35" height="35" rx="17.5" fill="white"/>
</clipPath>
</defs>
</svg>
