<svg width="32" height="32" viewBox="0 0 32 32" fill="none" xmlns="http://www.w3.org/2000/svg">
<g clip-path="url(#clip0_2137_153)">
<path d="M23.6785 18.3876C23.6162 18.3577 21.2833 17.2089 20.8687 17.0597C20.6995 16.999 20.5182 16.9396 20.3253 16.9396C20.0103 16.9396 19.7457 17.0966 19.5396 17.405C19.3065 17.7514 18.6011 18.576 18.3831 18.8223C18.3546 18.8549 18.3158 18.8937 18.2925 18.8937C18.2716 18.8937 17.9106 18.745 17.8013 18.6976C15.2987 17.6105 13.3992 14.9964 13.1387 14.5555C13.1015 14.4922 13.1 14.4634 13.0997 14.4634C13.1088 14.4298 13.193 14.3455 13.2364 14.3019C13.3635 14.1762 13.5011 14.0105 13.6343 13.8502C13.6974 13.7742 13.7606 13.6982 13.8226 13.6265C14.0158 13.4017 14.1019 13.2271 14.2016 13.0249L14.2539 12.9199C14.4974 12.4361 14.2894 12.0277 14.2222 11.8959C14.167 11.7856 13.182 9.40821 13.0772 9.15844C12.8254 8.55574 12.4926 8.27512 12.0302 8.27512C11.9873 8.27512 12.0302 8.27512 11.8502 8.2827C11.6311 8.29195 10.4379 8.44904 9.91027 8.78161C9.35079 9.13434 8.4043 10.2587 8.4043 12.2361C8.4043 14.0157 9.53365 15.696 10.0185 16.3351C10.0306 16.3512 10.0527 16.3839 10.0848 16.4309C11.9418 19.1428 14.2567 21.1525 16.6034 22.09C18.8626 22.9924 19.9324 23.0967 20.5406 23.0967H20.5407C20.7963 23.0967 21.0009 23.0767 21.1813 23.0589L21.2958 23.048C22.0763 22.9788 23.7914 22.0901 24.1816 21.0059C24.4889 20.152 24.5699 19.219 24.3655 18.8804C24.2254 18.6502 23.9841 18.5343 23.6785 18.3876Z" fill="#FFFDFD"/>
<path d="M16.284 0C7.61744 0 0.566626 6.99782 0.566626 15.5993C0.566626 18.3813 1.31115 21.1045 2.72154 23.4879L0.0220019 31.451C-0.0282839 31.5995 0.00911873 31.7637 0.118937 31.8755C0.19821 31.9564 0.305742 32 0.415561 32C0.457639 32 0.500028 31.9937 0.541379 31.9805L8.84476 29.3419C11.117 30.556 13.6851 31.1968 16.2841 31.1968C24.9499 31.1969 32 24.1998 32 15.5993C32 6.99782 24.9499 0 16.284 0ZM16.284 27.9475C13.8384 27.9475 11.4697 27.2413 9.43354 25.9052C9.36507 25.8602 9.28559 25.8371 9.20559 25.8371C9.16331 25.8371 9.12092 25.8436 9.07967 25.8566L4.92019 27.1788L6.26294 23.2174C6.30637 23.0892 6.28466 22.9478 6.20466 22.8385C4.65411 20.7198 3.83447 18.2166 3.83447 15.5993C3.83447 8.78962 9.41931 3.24946 16.2839 3.24946C23.1477 3.24946 28.7319 8.78962 28.7319 15.5993C28.7321 22.4081 23.1479 27.9475 16.284 27.9475Z" fill="#FFFDFD"/>
</g>
<defs>
<clipPath id="clip0_2137_153">
<rect width="32" height="32" fill="white"/>
</clipPath>
</defs>
</svg>
