<svg width="46" height="46" viewBox="0 0 46 46" fill="none" xmlns="http://www.w3.org/2000/svg">
<g clip-path="url(#clip0_2133_146)">
<rect width="46" height="46" rx="10" fill="#D51F1F"/>
<path d="M28.0189 24.2161C27.974 24.1946 26.2973 23.3689 25.9993 23.2617C25.8777 23.218 25.7474 23.1754 25.6088 23.1754C25.3824 23.1754 25.1922 23.2882 25.044 23.5099C24.8765 23.7588 24.3695 24.3515 24.2128 24.5286C24.1923 24.5519 24.1644 24.5799 24.1477 24.5799C24.1327 24.5799 23.8732 24.473 23.7946 24.4389C21.9959 23.6576 20.6306 21.7787 20.4434 21.4618C20.4167 21.4163 20.4156 21.3956 20.4153 21.3956C20.4219 21.3714 20.4824 21.3108 20.5136 21.2795C20.6049 21.1892 20.7039 21.0701 20.7996 20.9548C20.8449 20.9002 20.8903 20.8456 20.9349 20.7941C21.0738 20.6325 21.1357 20.507 21.2073 20.3617L21.2449 20.2862C21.4199 19.9384 21.2704 19.645 21.2221 19.5502C21.1825 19.4709 20.4745 17.7622 20.3992 17.5826C20.2182 17.1495 19.979 16.9478 19.6466 16.9478C19.6158 16.9478 19.6466 16.9478 19.5173 16.9532C19.3598 16.9599 18.5021 17.0728 18.1229 17.3118C17.7208 17.5653 17.0405 18.3735 17.0405 19.7947C17.0405 21.0738 17.8522 22.2815 18.2008 22.7408C18.2094 22.7524 18.2253 22.7759 18.2484 22.8097C19.5831 24.7589 21.2469 26.2034 22.9336 26.8772C24.5574 27.5258 25.3264 27.6008 25.7635 27.6008H25.7636C25.9473 27.6008 26.0943 27.5864 26.224 27.5736L26.3063 27.5658C26.8673 27.516 28.1 26.8773 28.3804 26.098C28.6013 25.4843 28.6596 24.8137 28.5126 24.5703C28.4119 24.4048 28.2385 24.3216 28.0189 24.2161Z" fill="white"/>
<path d="M22.7042 11C16.475 11 11.4073 16.0297 11.4073 22.212C11.4073 24.2116 11.9424 26.1689 12.9561 27.8819L11.0158 33.6054C10.9797 33.7121 11.0066 33.8301 11.0855 33.9105C11.1425 33.9687 11.2198 34 11.2987 34C11.3289 34 11.3594 33.9955 11.3891 33.986L17.3572 32.0895C18.9903 32.9621 20.8361 33.4227 22.7042 33.4227C28.9328 33.4228 34 28.3936 34 22.212C34 16.0297 28.9328 11 22.7042 11ZM22.7042 31.0872C20.9464 31.0872 19.2438 30.5797 17.7804 29.6193C17.7311 29.587 17.674 29.5704 17.6165 29.5704C17.5861 29.5704 17.5557 29.5751 17.526 29.5845L14.5364 30.5348L15.5015 27.6875C15.5327 27.5953 15.5171 27.4937 15.4596 27.4151C14.3451 25.8924 13.756 24.0932 13.756 22.212C13.756 17.3175 17.7701 13.3355 22.7041 13.3355C27.6374 13.3355 31.6511 17.3175 31.6511 22.212C31.6512 27.1058 27.6376 31.0872 22.7042 31.0872Z" fill="white"/>
</g>
<defs>
<clipPath id="clip0_2133_146">
<rect width="46" height="46" fill="white"/>
</clipPath>
</defs>
</svg>
